<svg width="128" height="128" viewBox="0 0 128 128" fill="none" xmlns="http://www.w3.org/2000/svg">
  <path
    fill-rule="evenodd"
    clip-rule="evenodd"
    d="M64 28C89.4051 28 110 48.5949 110 74C110 82.0322 107.941 89.5838 104.324 96.154L94.516 90.7528C97.2822 85.891 98.8571 80.2671 98.8571 74.2857C98.8571 55.6658 83.7627 40.5714 65.1429 40.5714C46.523 40.5714 31.4286 55.6658 31.4286 74.2857C31.4286 90.4678 42.8237 103.989 58 107.266V118.694C36.4489 115.27 20 96.5759 20 74.2857C20 48.5949 40.5949 28 66 28H64Z"
    fill="#FF6D36"
  />
  <path
    fill-rule="evenodd"
    clip-rule="evenodd"
    d="M62 48H72V100H62V48ZM49 75C49 66.7157 55.7157 60 64 60C72.2843 60 79 66.7157 79 75C79 83.2843 72.2843 90 64 90C55.7157 90 49 83.2843 49 75Z"
    fill="#FF6D36"
  />
  <circle cx="95" cy="79" r="9" fill="#FF6D36"/>
  <circle cx="64" cy="16" r="9" fill="#FF6D36"/>
</svg>
